<svg xmlns="http://www.w3.org/2000/svg" width="40" height="50" viewBox="0 0 40 50" fill="none"><g clip-path="url(#clip0_463_5931)"><path d="M21.3535 28.3228C21.3535 28.3228 22.5437 26.5937 22.9619 25.9102C23.5972 24.8727 25.27 22.6934 27.7871 22.6934H33.4165C35.6441 22.6934 38.2417 24.5752 38.2417 27.5186V33.9521C38.2417 35.5284 36.6253 37.1689 35.0249 37.1689H34.2207" stroke="black" stroke-width="1.6084" stroke-linejoin="round"></path><path d="M25.3755 50.0361V29.127L22.9629 32.3438" stroke="black" stroke-width="1.6084" stroke-linejoin="round"></path><path d="M34.2207 28.3242V50.0376" stroke="black" stroke-width="1.6084" stroke-linejoin="round"></path><path d="M30.2012 37.1699V50.0371" stroke="black" stroke-width="1.6084" stroke-linejoin="round"></path><path d="M13.313 50.0364V29.1272L18.2669 34.3464C19.063 35.1506 20.398 35.1506 21.2022 34.3464L22.1029 33.4618C22.1029 33.4618 19.1836 28.9342 18.1382 27.5107C17.0847 26.0793 15.1064 22.6855 11.7046 22.6855H6.0752C3.84756 22.6855 1.25 24.5191 1.25 27.5107V33.9443C1.25 35.5447 2.86644 37.1611 4.4668 37.1611" stroke="black" stroke-width="1.6084" stroke-linejoin="round"></path><path d="M4.4668 28.3242V50.0376" stroke="black" stroke-width="1.6084" stroke-linejoin="round"></path><path d="M9.29102 37.1699V50.0371" stroke="black" stroke-width="1.6084" stroke-linejoin="round"></path><path d="M9.29102 20.2822C11.1648 20.2822 12.5078 18.9714 12.5078 17.0654V15.457C12.5078 13.5511 11.1648 12.2402 9.29102 12.2402C7.41723 12.2402 6.07422 13.5511 6.07422 15.457V17.0654C6.07422 18.9714 7.41723 20.2822 9.29102 20.2822Z" stroke="black" stroke-width="1.6084" stroke-linejoin="round"></path><path d="M30.2012 20.2822C32.075 20.2822 33.418 18.9714 33.418 17.0654V15.457C33.418 13.5511 32.075 12.2402 30.2012 12.2402C28.3274 12.2402 26.9844 13.5511 26.9844 15.457V17.0654C26.9844 18.9714 28.3274 20.2822 30.2012 20.2822Z" stroke="black" stroke-width="1.6084" stroke-linejoin="round"></path><path d="M19.7456 13.7959C22.551 13.7959 24.8252 11.5217 24.8252 8.71631C24.8252 5.91093 22.551 3.63672 19.7456 3.63672C16.9402 3.63672 14.666 5.91093 14.666 8.71631C14.666 11.5217 16.9402 13.7959 19.7456 13.7959Z" fill="#3FA2F7" stroke="black" stroke-width="1.8" stroke-linejoin="round"></path><path d="M21.3924 11.0954C21.9986 11.0954 22.4899 10.604 22.4899 9.9979C22.4899 9.39176 21.9986 8.90039 21.3924 8.90039C20.7863 8.90039 20.2949 9.39176 20.2949 9.9979C20.2949 10.604 20.7863 11.0954 21.3924 11.0954Z" stroke="black" stroke-width="0.731671" stroke-linecap="round" stroke-linejoin="round"></path><path d="M18.0995 8.5329C18.7056 8.5329 19.197 8.04153 19.197 7.4354C19.197 6.82926 18.7056 6.33789 18.0995 6.33789C17.4933 6.33789 17.002 6.82926 17.002 7.4354C17.002 8.04153 17.4933 8.5329 18.0995 8.5329Z" stroke="black" stroke-width="0.731671" stroke-linecap="round" stroke-linejoin="round"></path><path d="M17.7344 11.0938L21.7586 6.33789" stroke="black" stroke-width="0.731671" stroke-linecap="round" stroke-linejoin="round"></path></g><defs><clipPath id="clip0_463_5931"><rect width="39" height="49" fill="white" transform="translate(0.392578 0.806641)"></rect></clipPath></defs></svg>