<svg xmlns="http://www.w3.org/2000/svg" width="48" height="44" viewBox="0 0 48 44" fill="none"><g clip-path="url(#clip0_463_5908)"><rect x="2.49219" y="3.99707" width="35.2844" height="6.4375" fill="#3FA2F7"></rect><path d="M30.9141 3.33496H37.5183C38.0683 3.33496 38.5183 3.78496 38.5183 4.33496V18.335" stroke="black" stroke-width="2" stroke-linejoin="round"></path><path d="M22.5176 32.335H2.51758C1.96758 32.335 1.51758 31.885 1.51758 31.335V4.33496C1.51758 3.78496 1.96758 3.33496 2.51758 3.33496H8.74666" stroke="black" stroke-width="2" stroke-linejoin="round"></path><path d="M35.5176 42.335C41.5927 42.335 46.5176 37.4101 46.5176 31.335C46.5176 25.2598 41.5927 20.335 35.5176 20.335C29.4424 20.335 24.5176 25.2598 24.5176 31.335C24.5176 37.4101 29.4424 42.335 35.5176 42.335Z" stroke="black" stroke-width="2" stroke-linejoin="round"></path><path d="M1.51758 11.335H38.5176" stroke="black" stroke-width="2" stroke-linejoin="round"></path><path d="M40.5176 26.335L35.5176 32.335L31.5176 29.335" stroke="black" stroke-width="2" stroke-linejoin="round"></path><path d="M30.5176 0.334961V6.33496" stroke="black" stroke-width="2" stroke-linejoin="round"></path><path d="M9.96094 3.33496H29.8806" stroke="black" stroke-width="2" stroke-linejoin="round"></path><path d="M9.51758 0.334961V6.33496" stroke="black" stroke-width="2" stroke-linejoin="round"></path><path d="M12.5176 16.335H15.5176" stroke="black" stroke-width="2" stroke-miterlimit="10"></path><path d="M17.5176 16.335H20.5176" stroke="black" stroke-width="2" stroke-miterlimit="10"></path><path d="M22.5176 16.335H25.5176" stroke="black" stroke-width="2" stroke-miterlimit="10"></path><path d="M27.5176 16.335H30.5176" stroke="black" stroke-width="2" stroke-miterlimit="10"></path><path d="M7.51758 21.335H10.5176" stroke="black" stroke-width="2" stroke-miterlimit="10"></path><path d="M12.5176 21.335H15.5176" stroke="black" stroke-width="2" stroke-miterlimit="10"></path><path d="M17.5176 21.335H20.5176" stroke="black" stroke-width="2" stroke-miterlimit="10"></path><path d="M22.5176 21.335H25.5176" stroke="black" stroke-width="2" stroke-miterlimit="10"></path><path d="M7.51758 26.335H10.5176" stroke="black" stroke-width="2" stroke-miterlimit="10"></path><path d="M12.5176 26.335H15.5176" stroke="black" stroke-width="2" stroke-miterlimit="10"></path><path d="M17.5176 26.335H20.5176" stroke="black" stroke-width="2" stroke-miterlimit="10"></path></g><defs><clipPath id="clip0_463_5908"><rect width="47" height="43" fill="white" transform="translate(0.517578 0.334961)"></rect></clipPath></defs></svg>