<svg xmlns="http://www.w3.org/2000/svg" width="40" height="40" viewBox="0 0 40 40" fill="none"><g clip-path="url(#clip0_233_4245)"><path d="M24.61 24.4902C21.4488 24.4902 19.0374 25.8411 18.2268 26.5166V36.9527C18.5645 37.5944 20.314 38.8778 24.61 38.8778C28.906 38.8778 30.6555 37.5944 30.9932 36.9527V26.5166C30.1826 25.8411 27.7712 24.4902 24.61 24.4902Z" fill="#3FA2F7"></path><path d="M28.8835 12.6397V4.52194L25.2756 0.914062H1.8244V35.1889H14.452" stroke="black" stroke-width="1.80394" stroke-linecap="round" stroke-linejoin="round"></path><path d="M23.4717 3.62012V6.32603H26.1776" stroke="black" stroke-width="1.80394" stroke-linecap="round" stroke-linejoin="round"></path><path d="M6.33423 26.1689V31.5808" stroke="black" stroke-width="1.80394" stroke-linejoin="round"></path><path d="M13.55 25.2676V31.5814" stroke="black" stroke-width="1.80394" stroke-linejoin="round"></path><path d="M9.94214 23.4629V31.5806" stroke="black" stroke-width="1.80394" stroke-linejoin="round"></path><path d="M24.3737 29.7771C27.8607 29.7771 30.6875 28.5656 30.6875 27.0711C30.6875 25.5767 27.8607 24.3652 24.3737 24.3652C20.8867 24.3652 18.0599 25.5767 18.0599 27.0711C18.0599 28.5656 20.8867 29.7771 24.3737 29.7771Z" stroke="black" stroke-width="1.80394" stroke-linecap="round" stroke-linejoin="round"></path><path d="M30.6875 27.0713V31.5811C30.6875 33.0762 27.8609 34.287 24.3737 34.287C20.8864 34.287 18.0599 33.0762 18.0599 31.5811V27.0713" stroke="black" stroke-width="1.80394" stroke-linecap="round" stroke-linejoin="round"></path><path d="M18.0599 31.5811V36.0909C18.0599 37.5859 20.8864 38.7968 24.3737 38.7968C27.8609 38.7968 30.6875 37.5859 30.6875 36.0909V31.5811" stroke="black" stroke-width="1.80394" stroke-linecap="round" stroke-linejoin="round"></path><path d="M38.8052 22.5605V27.0704C38.8052 28.4335 36.4533 29.561 33.3945 29.7492" stroke="black" stroke-width="1.80394" stroke-linecap="round" stroke-linejoin="round"></path><path d="M32.4914 20.7575C35.9784 20.7575 38.8052 19.546 38.8052 18.0516C38.8052 16.5572 35.9784 15.3457 32.4914 15.3457C29.0044 15.3457 26.1776 16.5572 26.1776 18.0516C26.1776 19.546 29.0044 20.7575 32.4914 20.7575Z" stroke="black" stroke-width="1.80394" stroke-linecap="round" stroke-linejoin="round"></path><path d="M26.1776 21.6596V18.0518" stroke="black" stroke-width="1.80394" stroke-linecap="round" stroke-linejoin="round"></path><path d="M38.8052 18.0518V22.5616C38.8052 23.9743 36.2774 25.1345 33.0551 25.2574" stroke="black" stroke-width="1.80394" stroke-linecap="round" stroke-linejoin="round"></path><path d="M33.3922 34.26C36.4521 34.0728 38.8052 32.9442 38.8052 31.5811V27.0713" stroke="black" stroke-width="1.80394" stroke-linecap="round" stroke-linejoin="round"></path><path d="M17.1579 18.0515C18.6523 18.0515 19.8638 16.84 19.8638 15.3456C19.8638 13.8511 18.6523 12.6396 17.1579 12.6396C15.6634 12.6396 14.452 13.8511 14.452 15.3456C14.452 16.84 15.6634 18.0515 17.1579 18.0515Z" stroke="black" stroke-width="1.80394" stroke-linecap="round" stroke-linejoin="round"></path><path d="M9.04014 11.738C10.5346 11.738 11.746 10.5265 11.746 9.03208C11.746 7.53765 10.5346 6.32617 9.04014 6.32617C7.54571 6.32617 6.33423 7.53765 6.33423 9.03208C6.33423 10.5265 7.54571 11.738 9.04014 11.738Z" stroke="black" stroke-width="1.80394" stroke-linecap="round" stroke-linejoin="round"></path><path d="M8.13818 18.0518L18.0599 6.32617" stroke="black" stroke-width="1.80394" stroke-linecap="round" stroke-linejoin="round"></path></g><defs><clipPath id="clip0_233_4245"><rect width="38.7847" height="39.6867" fill="white" transform="translate(0.922424 0.0117188)"></rect></clipPath></defs></svg>