<svg xmlns="http://www.w3.org/2000/svg" width="27" height="27" viewBox="0 0 27 27" fill="none">
    <path
        d="M13.6867 0.495239C6.61086 0.495239 0.868164 6.23794 0.868164 13.3138C0.868164 20.3896 6.61086 26.1323 13.6867 26.1323C20.7625 26.1323 26.5052 20.3896 26.5052 13.3138C26.5052 6.23794 20.7625 0.495239 13.6867 0.495239ZM9.49503 7.75052C10.5333 7.75052 11.3922 8.59655 11.3922 9.64766C11.3922 10.686 10.5461 11.5448 9.49503 11.5448C8.45673 11.5448 7.59789 10.6988 7.59789 9.64766C7.59789 8.59655 8.44391 7.75052 9.49503 7.75052ZM9.64885 18.1848C9.45657 18.3771 9.21302 18.4668 8.96947 18.4668C8.72592 18.4668 8.48237 18.3771 8.29009 18.1848C7.91835 17.8131 7.91835 17.1978 8.29009 16.826L16.6862 8.4299C17.058 8.05817 17.6732 8.05817 18.045 8.4299C18.4167 8.80164 18.4167 9.41693 18.045 9.78867L9.64885 18.1848ZM17.8783 18.877C16.84 18.877 15.9812 18.031 15.9812 16.9799C15.9812 15.9416 16.8272 15.0827 17.8783 15.0827C18.9166 15.0827 19.7755 15.9287 19.7755 16.9799C19.7755 18.031 18.9295 18.877 17.8783 18.877Z"
        fill="#1e8483" />
</svg>