<svg width="27" height="28" viewBox="0 0 27 28" fill="none" xmlns="http://www.w3.org/2000/svg">
<circle cx="13.5" cy="14.1274" r="13.5" fill="#686ED9"/>
<path d="M17.3017 11.2199C17.2536 11.2131 17.2055 11.2131 17.1573 11.2199C16.0917 11.1856 15.2461 10.3124 15.2461 9.23993C15.2461 8.1468 16.133 7.25305 17.233 7.25305C18.3261 7.25305 19.2198 8.13993 19.2198 9.23993C19.213 10.3124 18.3673 11.1856 17.3017 11.2199Z" fill="#E8EEF6"/>
<path d="M19.5427 15.9849C18.7727 16.5006 17.6934 16.6931 16.6965 16.5624C16.9577 15.9987 17.0952 15.3731 17.1021 14.7131C17.1021 14.0256 16.9509 13.3724 16.6621 12.8018C17.6796 12.6643 18.759 12.8568 19.5359 13.3724C20.6221 14.0874 20.6221 15.2631 19.5427 15.9849Z" fill="#E8EEF6"/>
<path d="M9.67785 11.2199C9.72598 11.2131 9.7741 11.2131 9.82223 11.2199C10.8879 11.1856 11.7335 10.3124 11.7335 9.23993C11.7335 8.13993 10.8466 7.25305 9.7466 7.25305C8.65348 7.25305 7.7666 8.13993 7.7666 9.23993C7.7666 10.3124 8.61223 11.1856 9.67785 11.2199Z" fill="#E8EEF6"/>
<path d="M9.75266 14.7132C9.75266 15.3801 9.89703 16.0126 10.1583 16.5832C9.18891 16.6863 8.17828 16.4801 7.43578 15.992C6.34953 15.2701 6.34953 14.0944 7.43578 13.3726C8.17141 12.8776 9.20953 12.6782 10.1858 12.7882C9.90391 13.3657 9.75266 14.0188 9.75266 14.7132Z" fill="#E8EEF6"/>
<path d="M13.5833 16.7882C13.5283 16.7813 13.4664 16.7813 13.4045 16.7882C12.1395 16.7469 11.1289 15.7088 11.1289 14.4301C11.1358 13.1238 12.1877 12.0651 13.5008 12.0651C14.807 12.0651 15.8658 13.1238 15.8658 14.4301C15.8589 15.7088 14.8552 16.7469 13.5833 16.7882Z" fill="#E8EEF6"/>
<path d="M11.3489 18.2114C10.3108 18.9058 10.3108 20.047 11.3489 20.7345C12.5314 21.5251 14.4702 21.5251 15.6527 20.7345C16.6908 20.0401 16.6908 18.8989 15.6527 18.2114C14.477 17.4208 12.5383 17.4208 11.3489 18.2114Z" fill="#E8EEF6"/>
</svg>
