<svg width="27" height="27" viewBox="0 0 27 27" fill="none" xmlns="http://www.w3.org/2000/svg">
    <circle cx="13.25" cy="13.25" r="13.25" fill="#1e8483" />
    <path
        d="M17.8017 8.16995L13.971 6.73518C13.574 6.58892 12.9263 6.58892 12.5293 6.73518L8.69858 8.16995C7.96031 8.44854 7.36133 9.31218 7.36133 10.0992V15.7408C7.36133 16.3049 7.73047 17.0501 8.18318 17.3845L12.0139 20.247C12.6894 20.7555 13.7969 20.7555 14.4725 20.247L18.3031 17.3845C18.7558 17.0432 19.125 16.3049 19.125 15.7408V10.0992C19.1319 9.31218 18.533 8.44854 17.8017 8.16995ZM13.769 14.2294V16.0611C13.769 16.3467 13.5322 16.5835 13.2466 16.5835C12.9611 16.5835 12.7243 16.3467 12.7243 16.0611V14.2294C12.0208 14.0065 11.5054 13.3518 11.5054 12.5787C11.5054 11.6176 12.2855 10.8375 13.2466 10.8375C14.2078 10.8375 14.9879 11.6176 14.9879 12.5787C14.9879 13.3588 14.4725 14.0065 13.769 14.2294Z"
        fill="#E8EEF6" />
</svg>