<svg width="27" height="28" viewBox="0 0 27 28" fill="none" xmlns="http://www.w3.org/2000/svg">
    <circle cx="13.5" cy="14.1274" r="13.5" fill="#1e8483" />
    <g clip-path="url(#clip0_244_1441)">
        <path fill-rule="evenodd" clip-rule="evenodd"
            d="M6.625 14.127H8.15278H18.8472H20.375L13.5 7.25195L6.625 14.127ZM8.15234 19.4744V14.1272H18.8468V19.4744C18.8468 19.8796 18.6858 20.2682 18.3993 20.5547C18.1128 20.8412 17.7242 21.0022 17.319 21.0022H9.68012C9.27493 21.0022 8.88633 20.8412 8.59982 20.5547C8.31331 20.2682 8.15234 19.8796 8.15234 19.4744Z"
            fill="#E8EEF6" />
        <path
            d="M6.625 14.127L6.28786 13.7898C6.1515 13.9262 6.11071 14.1312 6.18451 14.3094C6.2583 14.4876 6.43216 14.6037 6.625 14.6037V14.127ZM20.375 14.127V14.6037C20.5678 14.6037 20.7417 14.4876 20.8155 14.3094C20.8893 14.1312 20.8485 13.9262 20.7121 13.7898L20.375 14.127ZM13.5 7.25195L13.8371 6.91481C13.6509 6.72862 13.3491 6.72862 13.1629 6.91481L13.5 7.25195ZM8.15234 14.1272V13.6504C7.88902 13.6504 7.67556 13.8639 7.67556 14.1272H8.15234ZM18.8468 14.1272H19.3236C19.3236 13.8639 19.1101 13.6504 18.8468 13.6504V14.1272ZM18.3993 20.5547L18.0622 20.2176L18.0622 20.2176L18.3993 20.5547ZM8.59982 20.5547L8.93696 20.2176L8.93696 20.2176L8.59982 20.5547ZM8.15278 14.127V13.6502H6.625V14.127V14.6037H8.15278V14.127ZM18.8472 14.127V13.6502H8.15278V14.127V14.6037H18.8472V14.127ZM20.375 14.127V13.6502H18.8472V14.127V14.6037H20.375V14.127ZM13.5 7.25195L13.1629 7.58909L20.0379 14.4641L20.375 14.127L20.7121 13.7898L13.8371 6.91481L13.5 7.25195ZM6.625 14.127L6.96214 14.4641L13.8371 7.58909L13.5 7.25195L13.1629 6.91481L6.28786 13.7898L6.625 14.127ZM8.15234 14.1272H7.67556V19.4744H8.15234H8.62913V14.1272H8.15234ZM18.8468 14.1272V13.6504H8.15234V14.1272V14.604H18.8468V14.1272ZM18.8468 19.4744H19.3236V14.1272H18.8468H18.37V19.4744H18.8468ZM18.3993 20.5547L18.7364 20.8919C19.1124 20.5159 19.3236 20.0061 19.3236 19.4744H18.8468H18.37C18.37 19.7532 18.2593 20.0205 18.0622 20.2176L18.3993 20.5547ZM17.319 21.0022V21.479C17.8507 21.479 18.3605 21.2678 18.7365 20.8919L18.3993 20.5547L18.0622 20.2176C17.8651 20.4147 17.5977 20.5254 17.319 20.5254V21.0022ZM9.68012 21.0022V21.479H17.319V21.0022V20.5254H9.68012V21.0022ZM8.59982 20.5547L8.26268 20.8919C8.63861 21.2678 9.14848 21.479 9.68012 21.479V21.0022V20.5254C9.40138 20.5254 9.13406 20.4147 8.93696 20.2176L8.59982 20.5547ZM8.15234 19.4744H7.67556C7.67556 20.0061 7.88675 20.5159 8.26268 20.8919L8.59982 20.5547L8.93696 20.2176C8.73986 20.0205 8.62913 19.7532 8.62913 19.4744H8.15234Z"
            fill="#E8EEF6" />
        <path d="M11.4375 15.1589L12.8125 16.5339L15.5625 13.7839" stroke="#1e8483" stroke-width="0.953571"
            stroke-linecap="round" stroke-linejoin="round" />
    </g>
    <defs>
        <clipPath id="clip0_244_1441">
            <rect width="16.5" height="16.5" fill="white" transform="translate(5.25 5.87744)" />
        </clipPath>
    </defs>
</svg>