<svg width="59" height="61" viewBox="0 0 59 61" fill="none" xmlns="http://www.w3.org/2000/svg">
<path d="M28.5202 47.251C26.7121 44.8406 25.0427 42.8443 23.6369 40.677C19.204 33.9059 19.652 27.0873 23.6278 20.2518C27.0791 14.3244 31.5633 9.21226 36.0174 4.07696C36.9734 3.0479 37.8341 1.93263 38.5892 0.745117C35.2657 3.32677 31.8961 5.88429 28.5818 8.49319C23.7037 12.3428 18.7298 16.1171 14.7477 20.9552C13.2335 22.7345 12.0281 24.7597 11.1817 26.945C10.0037 30.1953 11.0887 33.219 13.2432 35.8372C16.6129 39.9331 21.0138 42.6815 25.4199 45.4301C26.3411 46.0036 27.276 46.5246 28.5202 47.251Z" fill="#2C3D68"/>
<path d="M26.6324 42.1399C28.8092 45.3548 30.4158 47.6065 33.4013 49.0466C35.5307 50.0721 37.5928 51.2483 39.7268 52.2794C40.1063 52.4625 40.6725 52.2724 41.3129 52.2469C41.3762 52.7776 41.7369 53.2657 42.0765 53.436C43.02 53.8771 43.1689 54.0042 43.7568 54.2632C48.523 56.3554 53.295 58.4375 58.0732 60.5087L58.213 60.2022C56.3381 59.2559 54.4153 58.3981 52.6049 57.3382C47.6372 54.4437 42.6986 51.4992 37.7897 48.5049C37.0004 48.0247 36.4114 47.6368 35.6751 48.5482C35.5256 48.6649 35.3504 48.7433 35.1649 48.7768C34.9788 48.8102 34.7876 48.7977 34.6079 48.7402C33.9447 48.4465 33.302 48.1081 32.6839 47.7271L32.7073 47.3334C33.1513 47.3281 33.5993 47.3391 34.0439 47.3178C34.3989 47.2966 34.7568 47.2327 35.1078 47.1898C35.0074 46.847 34.8476 46.5247 34.6375 46.2376C32.7267 44.4777 30.7633 42.8002 28.8702 41.0147C28.2002 40.3922 27.3994 39.6659 26.7579 39.0131C26.1598 38.4787 25.7534 38.1516 25.1844 37.4337L24.5189 36.7422C24.3745 39.1364 25.3625 40.2639 26.6324 42.1399C26.1193 40.8436 28.4342 41.7626 28.965 42.7718C29.0882 43.0035 27.3732 41.939 27.3543 42.2529C27.0507 42.2329 28.3092 43.5979 28.0364 43.4634C28.0278 43.456 28.0192 43.4486 28.0112 43.4413C27.5347 43.0221 27.0633 42.6073 26.6324 42.1399Z" fill="#2C3D68"/>
<path d="M26.6323 42.1401C26.1192 40.8437 28.4341 41.7628 28.9649 42.772C29.0882 43.0037 27.3731 41.9392 27.3543 42.2531C27.0506 42.233 28.3091 43.5981 28.0363 43.4635L28.0112 43.4415C27.5346 43.0222 27.0632 42.6074 26.6323 42.1401Z" fill="#2C3D68"/>
<path d="M37.7894 48.5046C37.0001 48.0244 36.4111 47.6365 35.6748 48.5479C35.5253 48.6646 35.3501 48.743 35.1646 48.7765C34.9786 48.8098 34.7874 48.7973 34.6076 48.7399C33.9444 48.4462 33.3017 48.1078 32.6836 47.7268L32.707 47.3331C33.151 47.3278 33.5991 47.3388 34.0437 47.3175C34.3987 47.2963 34.7565 47.2324 35.1075 47.1895C35.0071 46.8467 34.8473 46.5244 34.6372 46.2373L37.7894 48.5046Z" fill="#2C3D68"/>
<path d="M39.7266 52.2791C40.1061 52.4622 40.6723 52.2721 41.3126 52.2466C41.376 52.7773 41.7367 53.2655 42.0763 53.4358L39.7266 52.2791Z" fill="#2C3D68"/>
<path d="M12.5699 36.3366C9.77844 32.9911 9.73052 28.9673 9.68258 24.9489C9.70712 24.1507 9.55301 23.3575 9.23111 22.6288C8.90922 21.9001 8.42864 21.2548 7.82423 20.7413C7.38362 20.2992 6.8226 20.0006 6.21248 19.884C5.60236 19.7673 4.97113 19.8377 4.40039 20.0863C2.96214 20.7418 1.62148 21.6061 0.0810547 22.469C0.551913 22.7131 1.04844 22.9025 1.5621 23.0336C3.13391 23.2298 3.86103 24.3042 4.46373 25.6061C5.33239 27.4847 6.15656 29.4033 7.18389 31.19C8.46463 33.384 10.3315 35.1677 12.5699 36.3366Z" fill="#2C3D68"/>
</svg>
