<svg width="14" height="13" viewBox="0 0 14 13" fill="none" xmlns="http://www.w3.org/2000/svg">
<path d="M6.99943 12.6385C6.82543 12.6385 6.65768 12.6035 6.49618 12.5335C6.33468 12.464 6.19318 12.3563 6.07168 12.2103L0.44968 5.46329C0.35668 5.35479 0.28668 5.23604 0.23968 5.10704C0.19268 4.97804 0.16943 4.84054 0.16993 4.69454C0.16993 4.60104 0.18168 4.50954 0.20518 4.42004C0.22918 4.33004 0.26268 4.23979 0.30568 4.14929L1.63993 1.45679C1.74843 1.25429 1.89918 1.09254 2.09218 0.971539C2.28518 0.850539 2.49643 0.790039 2.72593 0.790039H11.2729C11.5029 0.790039 11.7142 0.850539 11.9067 0.971539C12.0992 1.09254 12.2499 1.25404 12.3589 1.45604L13.6932 4.14854C13.7367 4.23954 13.7702 4.33004 13.7937 4.42004C13.8172 4.51004 13.8289 4.60154 13.8289 4.69454C13.8289 4.84054 13.8054 4.97804 13.7584 5.10704C13.7114 5.23604 13.6414 5.35479 13.5484 5.46329L7.92718 12.2103C7.80568 12.3563 7.66418 12.4643 7.50268 12.5343C7.34118 12.6038 7.17343 12.6385 6.99943 12.6385ZM4.61218 4.54004H9.38668L7.88668 1.54004H6.11218L4.61218 4.54004ZM6.62443 11.71V5.29004H1.29343L6.62443 11.71ZM7.37443 11.71L12.7054 5.29004H7.37443V11.71ZM10.2184 4.54004H13.0429L11.6719 1.79954C11.6334 1.72254 11.5757 1.66004 11.4987 1.61204C11.4217 1.56404 11.3399 1.54004 11.2534 1.54004H8.71843L10.2184 4.54004ZM0.95593 4.54004H3.78043L5.28043 1.54004H2.74468C2.65818 1.54004 2.57643 1.56404 2.49943 1.61204C2.42243 1.66004 2.36493 1.72254 2.32693 1.79954L0.95593 4.54004Z" fill="white"/>
</svg>
