<svg width="14" height="17" viewBox="0 0 14 17" fill="none" xmlns="http://www.w3.org/2000/svg">
<path d="M12.6619 7.41277C12.3207 6.64471 11.8246 5.95533 11.2047 5.38777L10.6932 4.91844C10.6758 4.90294 10.6549 4.89194 10.6323 4.8864C10.6097 4.88087 10.586 4.88097 10.5635 4.8867C10.5409 4.89243 10.5201 4.90361 10.5029 4.91925C10.4856 4.9349 10.4725 4.95454 10.4646 4.97644L10.2361 5.63211C10.0938 6.04344 9.83184 6.46355 9.46094 6.87664C9.43633 6.90301 9.4082 6.91004 9.38887 6.9118C9.36953 6.91355 9.33965 6.91004 9.31328 6.88543C9.28867 6.86434 9.27637 6.83269 9.27812 6.80105C9.34316 5.74285 9.02676 4.5493 8.33418 3.25027C7.76113 2.17097 6.96484 1.32898 5.96992 0.741874L5.24395 0.314725C5.14902 0.258475 5.02773 0.332303 5.03301 0.443045L5.07168 1.2868C5.09805 1.86336 5.03125 2.37312 4.87305 2.79676C4.67969 3.31531 4.40195 3.79695 4.04688 4.22937C3.79977 4.5299 3.5197 4.80172 3.21191 5.03973C2.47065 5.60955 1.86791 6.33969 1.44883 7.17547C1.03077 8.01854 0.81301 8.94674 0.8125 9.88777C0.8125 10.7175 0.975977 11.5208 1.29941 12.2784C1.61172 13.0078 2.06241 13.6698 2.62656 14.2278C3.19609 14.7903 3.85703 15.2333 4.59355 15.5409C5.35645 15.8608 6.16504 16.0225 7 16.0225C7.83496 16.0225 8.64356 15.8608 9.40645 15.5427C10.1412 15.2368 10.8093 14.7908 11.3734 14.2296C11.943 13.6671 12.3895 13.0096 12.7006 12.2802C13.0235 11.5246 13.1892 10.7112 13.1875 9.88953C13.1875 9.03172 13.0117 8.19851 12.6619 7.41277ZM10.5332 13.377C9.58926 14.3122 8.33594 14.8255 7 14.8255C5.66406 14.8255 4.41074 14.3122 3.4668 13.377C2.52637 12.4436 2.00781 11.2061 2.00781 9.88953C2.00781 9.12488 2.18008 8.39187 2.51934 7.70984C2.8498 7.04363 3.34199 6.44773 3.93965 5.98894C4.32081 5.69749 4.66652 5.36239 4.96973 4.99051C5.40918 4.45437 5.75371 3.85672 5.99277 3.21512C6.09084 2.95046 6.16209 2.67662 6.20547 2.39773C6.6291 2.78797 6.98418 3.25906 7.28125 3.81101C7.86836 4.9114 8.13906 5.89051 8.08633 6.72371C8.07373 6.91995 8.10578 7.11648 8.18007 7.29855C8.25435 7.48062 8.36895 7.64348 8.51523 7.77488C8.64201 7.8894 8.79027 7.97758 8.95141 8.03431C9.11255 8.09104 9.28335 8.11519 9.45391 8.10535C9.80019 8.08777 10.1184 7.93484 10.3504 7.67644C10.5842 7.41453 10.7863 7.14734 10.9551 6.87488C11.2012 7.18953 11.4068 7.5323 11.5703 7.90144C11.8498 8.53074 11.9922 9.20047 11.9922 9.88953C11.9922 11.2061 11.4736 12.4454 10.5332 13.377Z" fill="white"/>
</svg>
