<svg width="16" height="12" viewBox="0 0 16 12" fill="none" xmlns="http://www.w3.org/2000/svg">
<path fill-rule="evenodd" clip-rule="evenodd" d="M6.11932 8.60274C6.13581 8.7008 6.11269 8.8014 6.05502 8.88241C5.99736 8.96342 5.90987 9.01822 5.81182 9.03474C3.98591 9.34129 2.24614 10.0328 0.708066 11.0635C0.667168 11.0919 0.621023 11.1119 0.572322 11.1223C0.523621 11.1326 0.47334 11.1332 0.424414 11.124C0.375487 11.1147 0.328894 11.0958 0.287354 11.0683C0.245814 11.0409 0.210159 11.0054 0.182468 10.964C0.154778 10.9226 0.135608 10.8762 0.126076 10.8273C0.116543 10.7784 0.116841 10.7281 0.12695 10.6794C0.137059 10.6306 0.156777 10.5843 0.184955 10.5433C0.213132 10.5022 0.249204 10.4672 0.291066 10.4402C1.91732 9.3506 3.75679 8.61941 5.68732 8.29524C5.78538 8.27874 5.88598 8.30187 5.96699 8.35953C6.048 8.4172 6.1028 8.50468 6.11932 8.60274ZM9.87982 8.60274C9.89634 8.50468 9.95113 8.4172 10.0321 8.35953C10.1132 8.30187 10.2138 8.27874 10.3118 8.29524C12.2423 8.61941 14.0818 9.3506 15.7081 10.4402C15.7514 10.4665 15.7889 10.5013 15.8183 10.5425C15.8478 10.5837 15.8686 10.6304 15.8796 10.6799C15.8905 10.7293 15.8913 10.7805 15.8819 10.8302C15.8725 10.88 15.8531 10.9274 15.8249 10.9694C15.7967 11.0115 15.7603 11.0474 15.7179 11.0751C15.6754 11.1027 15.6278 11.1214 15.5779 11.1301C15.528 11.1389 15.4769 11.1374 15.4276 11.1258C15.3783 11.1142 15.3319 11.0928 15.2911 11.0627C13.7529 10.0324 12.0132 9.34106 10.1873 9.03474C10.0893 9.01822 10.0018 8.96342 9.94411 8.88241C9.88645 8.8014 9.86332 8.7008 9.87982 8.60274Z" fill="#2C3D68"/>
<path fill-rule="evenodd" clip-rule="evenodd" d="M3.87402 4.16504C3.87402 3.07102 4.30862 2.02181 5.08221 1.24822C5.8558 0.474636 6.90501 0.0400391 7.99902 0.0400391C9.09304 0.0400391 10.1423 0.474636 10.9158 1.24822C11.6894 2.02181 12.124 3.07102 12.124 4.16504C12.124 6.16079 11.1295 7.92929 10.171 9.17504C9.64338 9.85787 9.05251 10.4894 8.40627 11.0613L8.24727 11.1963L8.23752 11.2045L8.23452 11.2068H8.23377L7.99902 10.915L7.78377 11.2225L7.78227 11.221L7.77927 11.2188L7.76952 11.212L7.73427 11.1865L7.60752 11.0898C7.45643 10.9714 7.30887 10.8486 7.16502 10.7215C6.68116 10.2939 6.23501 9.82545 5.83152 9.32129C4.86402 8.11229 3.87402 6.34379 3.87402 4.16504ZM7.99902 10.915L7.78377 11.2225C7.8503 11.2691 7.93013 11.2928 8.01128 11.2901C8.09242 11.2874 8.1705 11.2577 8.23377 11.2068L7.99902 10.915ZM7.98552 10.4328C8.5666 9.91014 9.09927 9.33605 9.57702 8.71754C10.4935 7.52579 11.374 5.92004 11.374 4.16504C11.374 3.26993 11.0184 2.41149 10.3855 1.77855C9.75257 1.14562 8.89413 0.790039 7.99902 0.790039C7.10392 0.790039 6.24547 1.14562 5.61254 1.77855C4.9796 2.41149 4.62402 3.26993 4.62402 4.16504C4.62402 6.11129 5.50902 7.71779 6.41652 8.85254C6.88203 9.43342 7.40799 9.96315 7.98552 10.4328ZM7.99902 3.04004C7.70066 3.04004 7.41451 3.15857 7.20353 3.36954C6.99255 3.58052 6.87402 3.86667 6.87402 4.16504C6.87402 4.46341 6.99255 4.74956 7.20353 4.96053C7.41451 5.17151 7.70066 5.29004 7.99902 5.29004C8.29739 5.29004 8.58354 5.17151 8.79452 4.96053C9.0055 4.74956 9.12402 4.46341 9.12402 4.16504C9.12402 3.86667 9.0055 3.58052 8.79452 3.36954C8.58354 3.15857 8.29739 3.04004 7.99902 3.04004ZM6.12402 4.16504C6.12402 3.66776 6.32157 3.19084 6.6732 2.83921C7.02483 2.48758 7.50174 2.29004 7.99902 2.29004C8.4963 2.29004 8.97322 2.48758 9.32485 2.83921C9.67648 3.19084 9.87402 3.66776 9.87402 4.16504C9.87402 4.66232 9.67648 5.13923 9.32485 5.49086C8.97322 5.8425 8.4963 6.04004 7.99902 6.04004C7.50174 6.04004 7.02483 5.8425 6.6732 5.49086C6.32157 5.13923 6.12402 4.66232 6.12402 4.16504Z" fill="#2C3D68"/>
</svg>
