<svg width="51" height="51" viewBox="0 0 51 51" fill="none" xmlns="http://www.w3.org/2000/svg">
<path d="M47.4095 26.203C47.4095 24.5819 47.264 23.0232 46.9938 21.5269H25.4629V30.3803H37.7663C37.2259 33.2276 35.6049 35.6384 33.1733 37.2594V43.0162H40.5927C44.9156 39.0259 47.4095 33.1652 47.4095 26.203Z" fill="#4285F4"/>
<path d="M25.4624 48.5445C31.6349 48.5445 36.8098 46.5078 40.5922 43.0163L33.1728 37.2595C31.1361 38.6311 28.5382 39.4624 25.4624 39.4624C19.5185 39.4624 14.4683 35.4514 12.6602 30.0479H5.05371V35.9502C8.81539 43.4112 16.5258 48.5445 25.4624 48.5445Z" fill="#34A853"/>
<path d="M12.6604 30.027C12.2032 28.6553 11.933 27.2005 11.933 25.6834C11.933 24.1663 12.2032 22.7115 12.6604 21.3398V15.4375H5.05393C3.49522 18.5133 2.60156 21.9841 2.60156 25.6834C2.60156 29.3827 3.49522 32.8535 5.05393 35.9293L10.977 31.3155L12.6604 30.027Z" fill="#FBBC05"/>
<path d="M25.4624 11.9251C28.8292 11.9251 31.8219 13.089 34.2119 15.3335L40.7585 8.78692C36.789 5.08759 31.6349 2.82227 25.4624 2.82227C16.5258 2.82227 8.81539 7.95561 5.05371 15.4374L12.6602 21.3397C14.4683 15.9362 19.5185 11.9251 25.4624 11.9251Z" fill="#EA4335"/>
</svg>
