<svg width="51" height="50" viewBox="0 0 51 50" fill="none" xmlns="http://www.w3.org/2000/svg">
<path d="M36.5697 11.7544C36.0809 11.7544 35.603 11.8993 35.1966 12.1709C34.7902 12.4424 34.4734 12.8284 34.2864 13.28C34.0993 13.7316 34.0504 14.2285 34.1457 14.708C34.2411 15.1874 34.4765 15.6277 34.8221 15.9734C35.1677 16.319 35.6081 16.5544 36.0875 16.6497C36.5669 16.7451 37.0638 16.6962 37.5154 16.5091C37.967 16.322 38.353 16.0053 38.6246 15.5989C38.8961 15.1924 39.0411 14.7146 39.0411 14.2258C39.0411 13.5703 38.7807 12.9417 38.3172 12.4782C37.8537 12.0148 37.2251 11.7544 36.5697 11.7544ZM46.0435 16.7384C46.0034 15.0296 45.6834 13.339 45.0961 11.7338C44.5724 10.3603 43.7574 9.11669 42.707 8.08842C41.6872 7.03276 40.4407 6.22285 39.0617 5.71997C37.4607 5.1148 35.7682 4.78743 34.057 4.75199C31.8739 4.62842 31.1737 4.62842 25.5718 4.62842C19.9699 4.62842 19.2697 4.62842 17.0866 4.75199C15.3754 4.78743 13.6829 5.1148 12.0819 5.71997C10.7055 6.22794 9.46001 7.03716 8.43656 8.08842C7.3809 9.10825 6.571 10.3548 6.06811 11.7338C5.46294 13.3347 5.13558 15.0273 5.10013 16.7384C4.97656 18.9215 4.97656 19.6218 4.97656 25.2237C4.97656 30.8256 4.97656 31.5258 5.10013 33.7089C5.13558 35.42 5.46294 37.1126 6.06811 38.7135C6.571 40.0925 7.3809 41.3391 8.43656 42.3589C9.46001 43.4102 10.7055 44.2194 12.0819 44.7273C13.6829 45.3325 15.3754 45.6599 17.0866 45.6953C19.2697 45.8189 19.9699 45.8189 25.5718 45.8189C31.1737 45.8189 31.8739 45.8189 34.057 45.6953C35.7682 45.6599 37.4607 45.3325 39.0617 44.7273C40.4407 44.2245 41.6872 43.4146 42.707 42.3589C43.762 41.3344 44.5778 40.0897 45.0961 38.7135C45.6834 37.1083 46.0034 35.4177 46.0435 33.7089C46.0435 31.5258 46.167 30.8256 46.167 25.2237C46.167 19.6218 46.167 18.9215 46.0435 16.7384ZM42.3363 33.4618C42.3213 34.7691 42.0846 36.0644 41.6361 37.2925C41.3073 38.1888 40.7791 38.9986 40.0914 39.6609C39.4234 40.3416 38.6152 40.8687 37.723 41.2056C36.4949 41.654 35.1996 41.8908 33.8923 41.9058C31.8328 42.0088 31.0707 42.0294 25.6542 42.0294C20.2376 42.0294 19.4756 42.0294 17.4161 41.9058C16.0586 41.9312 14.707 41.7222 13.4206 41.2879C12.5675 40.9339 11.7964 40.4081 11.1551 39.7433C10.4716 39.0817 9.94999 38.2711 9.63109 37.3749C9.12827 36.1292 8.84938 34.8044 8.80728 33.4618C8.80728 31.4022 8.68371 30.6402 8.68371 25.2237C8.68371 19.8071 8.68371 19.0451 8.80728 16.9856C8.81651 15.649 9.0605 14.3245 9.52811 13.0725C9.89068 12.2032 10.4472 11.4283 11.1551 10.807C11.7808 10.0989 12.5541 9.53646 13.4206 9.15937C14.676 8.70637 15.9991 8.46959 17.3337 8.45913C19.3932 8.45913 20.1553 8.33556 25.5718 8.33556C30.9884 8.33556 31.7504 8.33556 33.8099 8.45913C35.1172 8.47413 36.4125 8.7109 37.6406 9.15937C38.5765 9.50671 39.4165 10.0714 40.0914 10.807C40.7664 11.4396 41.2937 12.2131 41.6361 13.0725C42.0938 14.3266 42.3307 15.6505 42.3363 16.9856C42.4393 19.0451 42.4599 19.8071 42.4599 25.2237C42.4599 30.6402 42.4393 31.4022 42.3363 33.4618ZM25.5718 14.6583C23.4831 14.6624 21.4424 15.2855 19.7076 16.4489C17.9729 17.6123 16.6219 19.2638 15.8254 21.1947C15.0289 23.1256 14.8226 25.2493 15.2326 27.2975C15.6426 29.3456 16.6504 31.2262 18.1288 32.7017C19.6072 34.1773 21.4898 35.1815 23.5388 35.5875C25.5877 35.9935 27.711 35.7831 29.6403 34.9828C31.5697 34.1825 33.2186 32.8283 34.3786 31.0913C35.5386 29.3543 36.1578 27.3124 36.1578 25.2237C36.1605 23.8337 35.8884 22.4569 35.3571 21.1725C34.8258 19.8881 34.0458 18.7213 33.062 17.7395C32.0782 16.7576 30.91 15.9799 29.6245 15.4511C28.3391 14.9223 26.9618 14.6529 25.5718 14.6583ZM25.5718 32.0819C24.2154 32.0819 22.8894 31.6796 21.7616 30.9261C20.6338 30.1725 19.7547 29.1014 19.2356 27.8482C18.7166 26.595 18.5807 25.2161 18.8454 23.8857C19.11 22.5553 19.7632 21.3333 20.7223 20.3742C21.6815 19.415 22.9035 18.7618 24.2338 18.4972C25.5642 18.2326 26.9432 18.3684 28.1963 18.8875C29.4495 19.4066 30.5206 20.2856 31.2742 21.4134C32.0278 22.5413 32.43 23.8672 32.43 25.2237C32.43 26.1243 32.2526 27.0161 31.908 27.8482C31.5633 28.6803 31.0581 29.4363 30.4213 30.0731C29.7845 30.71 29.0284 31.2152 28.1963 31.5598C27.3643 31.9045 26.4724 32.0819 25.5718 32.0819Z" fill="white"/>
</svg>
