<svg width="25" height="18" viewBox="0 0 25 18" fill="none" xmlns="http://www.w3.org/2000/svg">
<path fill-rule="evenodd" clip-rule="evenodd" d="M25.4127 18.0578H-0.369141V0.00976562H25.4127V18.0578Z" fill="white"/>
<path fill-rule="evenodd" clip-rule="evenodd" d="M25.4127 4.07095H-0.369141V1.70215H25.4127V4.07095ZM25.4127 16.4261H-0.369141V14.0573H25.4127V16.4261ZM8.38696 6.73232L12.268 13.4862L16.2336 6.76405L8.38696 6.73232Z" fill="#0038B8"/>
<path fill-rule="evenodd" clip-rule="evenodd" d="M11.5381 11.2119L12.2748 12.4633L13.0292 11.219L11.5381 11.2119Z" fill="white"/>
<path fill-rule="evenodd" clip-rule="evenodd" d="M8.37305 11.3105L12.2576 4.55664L16.2197 11.2823L8.37305 11.3105Z" fill="#0038B8"/>
<path fill-rule="evenodd" clip-rule="evenodd" d="M11.5384 6.76407L12.2751 5.5127L13.0294 6.76055L11.5384 6.76407ZM9.99442 9.56645L9.22949 10.8354L10.6747 10.8319L9.99442 9.56292V9.56645ZM9.24359 7.22232L10.6959 7.23289L9.99794 8.51247L9.24359 7.22232ZM14.5734 9.58407L15.3101 10.8354L13.8402 10.8178L14.5734 9.58407ZM15.296 7.22232L13.8437 7.23289L14.5417 8.51247L15.296 7.22232ZM11.2669 7.22232L10.2658 9.03417L11.281 10.8072L13.1422 10.8495L14.2702 9.03417L13.2268 7.20117L11.2669 7.22232Z" fill="white"/>
</svg>
