<svg width="51" height="50" viewBox="0 0 51 50" fill="none" xmlns="http://www.w3.org/2000/svg">
<path d="M42.8729 4.62871H7.98453C7.59235 4.62326 7.20294 4.69512 6.83854 4.84019C6.47414 4.98525 6.14188 5.20068 5.86075 5.47417C5.57961 5.74765 5.3551 6.07384 5.20004 6.4341C5.04498 6.79437 4.9624 7.18165 4.95703 7.57383V42.8741C4.9624 43.2662 5.04498 43.6535 5.20004 44.0138C5.3551 44.3741 5.57961 44.7002 5.86075 44.9737C6.14188 45.2472 6.47414 45.4626 6.83854 45.6077C7.20294 45.7528 7.59235 45.8246 7.98453 45.8192H42.8729C43.265 45.8246 43.6544 45.7528 44.0189 45.6077C44.3833 45.4626 44.7155 45.2472 44.9966 44.9737C45.2778 44.7002 45.5023 44.3741 45.6574 44.0138C45.8124 43.6535 45.895 43.2662 45.9004 42.8741V7.57383C45.895 7.18165 45.8124 6.79437 45.6574 6.4341C45.5023 6.07384 45.2778 5.74765 44.9966 5.47417C44.7155 5.20068 44.3833 4.98525 44.0189 4.84019C43.6544 4.69512 43.265 4.62326 42.8729 4.62871ZM17.376 39.1051H11.1974V20.5694H17.376V39.1051ZM14.2867 17.9744C13.4346 17.9744 12.6174 17.6359 12.0148 17.0334C11.4123 16.4309 11.0738 15.6137 11.0738 14.7616C11.0738 13.9095 11.4123 13.0923 12.0148 12.4897C12.6174 11.8872 13.4346 11.5487 14.2867 11.5487C14.7391 11.4974 15.1973 11.5422 15.6313 11.6803C16.0652 11.8183 16.4651 12.0465 16.8048 12.3498C17.1444 12.6531 17.4162 13.0247 17.6022 13.4403C17.7883 13.856 17.8845 14.3062 17.8845 14.7616C17.8845 15.2169 17.7883 15.6672 17.6022 16.0828C17.4162 16.4984 17.1444 16.87 16.8048 17.1733C16.4651 17.4767 16.0652 17.7048 15.6313 17.8429C15.1973 17.9809 14.7391 18.0257 14.2867 17.9744ZM39.66 39.1051H33.4814V29.1576C33.4814 26.6656 32.5958 25.0386 30.351 25.0386C29.6562 25.0437 28.9797 25.2616 28.4126 25.663C27.8455 26.0644 27.4151 26.6299 27.1793 27.2835C27.0181 27.7675 26.9483 28.2773 26.9733 28.7869V39.0845H20.7948C20.7948 39.0845 20.7948 22.2376 20.7948 20.5488H26.9733V23.1644C27.5346 22.1905 28.351 21.3881 29.3345 20.8438C30.318 20.2994 31.4313 20.0336 32.5546 20.0751C36.6737 20.0751 39.66 22.7319 39.66 28.4368V39.1051Z" fill="white"/>
</svg>
