<svg width="24" height="23" viewBox="0 0 24 23" fill="none" xmlns="http://www.w3.org/2000/svg">
<path d="M11.2052 1.44871C11.4986 0.858104 12.3411 0.858103 12.6346 1.44871L15.0311 6.27218C15.1474 6.50607 15.3706 6.66829 15.629 6.70654L20.957 7.49527C21.6093 7.59184 21.8697 8.39312 21.3987 8.85471L17.5518 12.6245C17.3653 12.8073 17.28 13.0698 17.3235 13.3273L18.2198 18.6382C18.3296 19.2885 17.6479 19.7838 17.0634 19.4784L12.2894 16.9848C12.0579 16.8639 11.7819 16.8639 11.5504 16.9848L6.77638 19.4784C6.19183 19.7838 5.51022 19.2885 5.61997 18.6382L6.51628 13.3273C6.55974 13.0698 6.47445 12.8073 6.28792 12.6245L2.44111 8.85471C1.97008 8.39312 2.23043 7.59184 2.88282 7.49527L8.21079 6.70654C8.46913 6.66829 8.69242 6.50607 8.80862 6.27218L11.2052 1.44871Z" fill="#FEA500"/>
</svg>
