<svg width="50" height="50" viewBox="0 0 50 50" fill="none" xmlns="http://www.w3.org/2000/svg">
<path d="M25.5946 4.2666C14.0526 4.2666 4.69043 13.6287 4.69043 25.1708C4.69043 36.7128 14.0526 46.0749 25.5946 46.0749C37.1366 46.0749 46.4988 36.7128 46.4988 25.1708C46.4988 13.6287 37.1366 4.2666 25.5946 4.2666Z" fill="white"/>
<path fill-rule="evenodd" clip-rule="evenodd" d="M35.2105 13.6599C32.5774 11.0244 29.0758 9.57248 25.3451 9.57129C17.6582 9.57129 11.4017 15.8253 11.3982 23.5122C11.3982 25.9699 12.0388 28.368 13.2593 30.4821L11.2812 37.7073L18.6747 35.7686C20.7112 36.8793 23.0055 37.4651 25.3391 37.4651H25.3451C33.0308 37.4651 39.2884 31.2099 39.2908 23.523C39.292 19.7982 37.8424 16.2954 35.2093 13.6599H35.2105ZM25.3451 35.1112H25.3403C23.2608 35.1112 21.2207 34.5516 19.4406 33.4958L19.0171 33.244L14.6302 34.3941L15.8018 30.1182L15.5262 29.6804C14.3653 27.8359 13.7533 25.7027 13.7545 23.5134C13.7569 17.1246 18.9574 11.9264 25.351 11.9264C28.447 11.9264 31.3581 13.135 33.5462 15.3242C35.7343 17.5147 36.9393 20.4258 36.9381 23.5218C36.9357 29.9118 31.7351 35.11 25.3463 35.11L25.3451 35.1112ZM31.7041 26.4316C31.3557 26.2575 29.6425 25.414 29.3227 25.2982C29.003 25.1825 28.7715 25.124 28.5389 25.4724C28.3063 25.8208 27.6393 26.6058 27.4353 26.8385C27.2325 27.0711 27.0285 27.0998 26.6801 26.9256C26.3317 26.7514 25.2091 26.3839 23.8776 25.1968C22.842 24.2734 22.1429 23.1328 21.9389 22.7833C21.7361 22.4349 21.9174 22.2464 22.0916 22.0722C22.2479 21.9159 22.44 21.6654 22.6142 21.4613C22.7883 21.2573 22.8468 21.113 22.9625 20.8803C23.0783 20.6477 23.021 20.4449 22.9339 20.2695C22.8468 20.0953 22.1501 18.3809 21.8589 17.6829C21.5762 17.0041 21.2887 17.0959 21.0751 17.0852C20.8723 17.0757 20.6396 17.0733 20.407 17.0733C20.1743 17.0733 19.7973 17.1604 19.4776 17.5087C19.1578 17.8571 18.2583 18.7006 18.2583 20.415C18.2583 22.1295 19.5074 23.7866 19.6816 24.0193C19.8558 24.2519 22.1393 27.7703 25.635 29.2795C26.4665 29.6386 27.1156 29.8522 27.6214 30.0132C28.4566 30.2781 29.2154 30.2411 29.8167 30.1516C30.486 30.0514 31.8783 29.3093 32.1682 28.4956C32.4581 27.682 32.4581 26.984 32.371 26.8397C32.2839 26.6941 32.0513 26.607 31.7029 26.4328L31.7041 26.4316Z" fill="#272727"/>
</svg>
