<?xml version="1.0" encoding="UTF-8"?> <svg xmlns="http://www.w3.org/2000/svg" xmlns:xlink="http://www.w3.org/1999/xlink" version="1.1" id="layer" x="0px" y="0px" viewBox="0 0 652 652" style="enable-background:new 0 0 652 652;" xml:space="preserve"> <path d="M570.9,572.7h-490v-490h490V572.7z M575.9,77.7h-500v500h500V77.7z"></path> <g> <path d="M195.8,432.9l-22.4,59.8h20l2.6-7.9h20.7l2.6,7.9h20L217,432.9H195.8z M200.6,470.5l4.2-12.7c0.6-2.2,1.2-4.6,1.6-7.7 c0.4,3.1,1,5.5,1.7,7.7l4.2,12.7H200.6z"></path> </g> <polygon points="263.3,432.9 243.5,432.9 243.5,492.7 288.8,492.7 288.8,475.4 263.3,475.4 "></polygon> <g> <path d="M320.1,432.9h-25.8v59.8h25.8c21.4,0,31-12.4,31-29.9C351.2,445.3,341.6,432.9,320.1,432.9 M319.6,476.1h-5.6v-26.7h5.6 c7,0,11.3,3.6,11.3,13.3C330.9,472.5,326.6,476.1,319.6,476.1"></path> <path d="M372.3,432.9L350,492.7h20l2.6-7.9h20.7l2.6,7.9h20l-22.3-59.8H372.3z M377.1,470.5l4.2-12.7c0.6-2.2,1.2-4.6,1.6-7.7 c0.4,3.1,1,5.5,1.7,7.7l4.2,12.7H377.1z"></path> <path d="M463,471.8c6-3,10.3-8.5,10.3-17.8c0-16.3-12.7-21.1-25.5-21.1h-27.8v59.8h19.7V475h4.6l12.3,17.7h21.7L463,471.8z M447.4,460.2h-7.6V449h7.6c3.8,0,6.1,2.3,6.1,5.6C453.5,457.9,451.3,460.2,447.4,460.2"></path> </g> <rect x="416.2" y="157.7" width="60.6" height="111.1"></rect> <g> <path d="M438.3,355.6c0,9.8-8.4,9.7-14.1,9.7h-28.1v49.2h80.6v-95.3c0,0-11.3-23.1-38.8-41.6l-35.9,35.5 C402.1,312.9,438.3,331.7,438.3,355.6"></path> <path d="M256.8,238.4c0-32.2,20.7-55.1,20.7-55.1l41.3,23.1c-19.7,24.8-15.5,50.5,7.4,50.5c22.9,0,22.2-20.9,22.2-23.4v-75.9h49 v79.5c0,34.3-27.7,70.1-70.6,70.1C288.2,307.3,256.8,276,256.8,238.4"></path> <path d="M258.4,286.1h-21.1v23.6c0,53.8-29.6,58.5-46.7,58.3h-15.9v46.6h79c27.3-19.4,41.8-52.1,43.8-98.7 C281.7,310,268.2,299.5,258.4,286.1"></path> <path d="M326.8,321c-3.4,0-6.7-0.2-10-0.6v94h60.5V304.3C363.2,314.8,345.7,321,326.8,321"></path> </g> </svg> 